<svg width="185" height="60" viewBox="0 0 185 60" fill="none" xmlns="http://www.w3.org/2000/svg">
<g clip-path="url(#clip0_1740_7094)">
<path d="M42.895 15.6908C42.4852 15.6908 42.0754 15.9852 42.0012 16.3908L41.166 21.0856L40.2246 26.3738C42.7795 24.4035 44.8723 21.8645 46.1938 18.8788C46.65 17.856 46.9904 16.7862 47.2086 15.6892L42.895 15.6908ZM64.3078 15.6908H58.2378C58.0349 15.6909 57.8384 15.7608 57.6818 15.8885C57.5252 16.0162 57.4182 16.1937 57.3791 16.3908L55.7032 25.8275H47.9198L49.5957 16.3908V16.2803C49.5957 15.9357 49.3678 15.7201 49.0337 15.6931C48.7965 17.0367 48.3941 18.3466 47.8355 19.5936C46.1892 23.3125 43.4048 26.5175 39.7781 28.8703L38.3503 36.8915C38.8933 37.7339 39.3681 38.6175 39.7703 39.5341C40.2717 40.6773 40.665 41.864 40.9451 43.0791H44.0839C44.2943 43.0714 44.4961 42.9949 44.6578 42.8615C44.8196 42.7281 44.932 42.5454 44.9777 42.342L46.7286 32.3149H54.5112L52.7634 42.3482V42.495C52.7592 42.5735 52.7716 42.6521 52.8001 42.7256C52.8285 42.7991 52.8721 42.8658 52.9283 42.9215C52.9845 42.9772 53.0519 43.0205 53.1261 43.0487C53.2003 43.077 53.2796 43.0894 53.359 43.0853H59.4298C59.64 43.0774 59.8417 43.0008 60.0033 42.8674C60.1648 42.7341 60.2772 42.5515 60.3228 42.3482L64.9408 16.397V16.2865C64.9408 15.9148 64.6801 15.6908 64.3078 15.6908Z" fill="#202020"/>
<path d="M77.862 21.2966C71.643 21.2966 67.402 24.0242 66.1686 31.3229L65.7595 33.7561C65.6573 34.3775 65.6075 35.0063 65.6105 35.636C65.6105 40.8701 69.7071 43.4138 73.8404 43.4138C76.9682 43.4138 79.5005 43.0452 81.9961 42.271C82.6292 42.0871 82.815 41.829 82.9266 41.2387L83.523 37.9216V37.774C83.523 37.4425 83.299 37.2949 82.9641 37.2949H82.815C81.3997 37.4425 77.6388 37.5893 75.6654 37.5893C73.8029 37.5893 72.6117 37.332 72.6117 35.4884C72.6169 35.1051 72.6543 34.7228 72.7234 34.3456H84.3051C84.5323 34.3422 84.7508 34.2587 84.9214 34.1101C85.0919 33.9616 85.2033 33.7577 85.2356 33.5351L85.608 31.3229C85.7254 30.6285 85.7878 29.926 85.7945 29.222C85.7945 24.8355 83.2623 21.2966 77.862 21.2966ZM78.9049 30.4382H73.3939C73.8404 28.3373 74.7342 26.7888 76.82 26.7888C78.4951 26.7888 79.0915 27.6735 79.0915 28.9639C79.0799 29.4603 79.0175 29.9543 78.9049 30.4382Z" fill="#202020"/>
<path d="M108.249 22.2184C105.606 21.7023 102.738 21.2966 100.094 21.2966C94.396 21.2966 89.8904 23.3241 88.6976 30.3648L88.0646 34.0875C87.9529 34.7142 87.8413 35.5626 87.8413 36.2255C87.8413 40.8338 90.7085 43.4114 94.3203 43.4114C96.4061 43.4114 98.0812 42.7114 100.055 41.2L99.9063 42.3428V42.4533C99.9063 42.8219 100.167 43.08 100.577 43.08H105.236C105.646 43.08 105.944 42.7477 106.017 42.3428L109.368 23.3952C109.397 23.2998 109.409 23.2003 109.405 23.1008C109.404 22.4765 108.957 22.366 108.249 22.2184ZM99.8704 36.4836C99.1257 36.9264 97.7854 37.4788 96.6699 37.4788C95.6278 37.4788 94.9573 37.1103 94.9573 35.7836C94.9479 35.4745 94.9728 35.1654 95.0314 34.8618L95.7394 30.9211C96.2609 27.9718 97.1914 27.1605 99.2772 27.1605C100.024 27.1694 100.77 27.2186 101.511 27.3081L99.8704 36.4836Z" fill="#202020"/>
<path d="M121.358 14.5881H115.738C115.105 14.5881 114.879 14.9196 114.807 15.3253L109.998 42.2709C109.886 42.8241 110.185 43.0822 110.669 43.0822H116.289C116.773 43.0822 117.069 42.8975 117.182 42.2709L121.987 15.3253C122.065 14.8825 121.842 14.5881 121.358 14.5881Z" fill="#202020"/>
<path d="M136.923 21.628H134.242L134.95 17.6101C135.028 17.0947 134.764 16.8374 134.242 16.91L128.544 17.8682C128.097 17.9454 127.685 18.2367 127.613 18.6408L127.092 21.6265H124.634C123.89 21.6265 123.776 21.9958 123.703 22.3991L123.145 25.496C123.033 26.0856 123.368 26.1961 123.778 26.3066L126.161 26.8598L124.411 36.7076C124.299 37.3409 124.237 37.9818 124.225 38.6246C124.225 42.2006 126.534 43.4152 129.774 43.4152C131.152 43.4152 132.864 43.1201 133.163 43.0837C133.796 42.9732 134.021 42.7515 134.094 42.3466L134.689 38.8811C134.764 38.3287 134.429 38.1811 134.019 38.1811H132.306C131.636 38.1811 131.412 38.0335 131.412 37.5544C131.423 37.2938 131.46 37.0348 131.524 36.7818L133.312 26.866H136.141C136.774 26.866 136.922 26.5337 137 26.1289L137.67 22.369C137.78 21.7756 137.52 21.628 136.923 21.628Z" fill="#202020"/>
<path d="M152.34 21.2965C150.628 21.2965 149.212 21.5546 148.203 21.8861L149.394 15.3253C149.507 14.6986 149.171 14.5881 148.761 14.5881H143.063C142.43 14.5881 142.282 14.9196 142.204 15.3253L137.407 42.2709C137.296 42.8241 137.668 43.0822 138.078 43.0822H143.698C144.406 43.0822 144.518 42.6765 144.592 42.2709L147.236 27.4525C147.981 27.2686 148.838 27.1944 149.694 27.1944C151.407 27.1944 152.04 27.5259 152.04 28.6686C152.04 28.9267 152.04 29.259 151.816 30.4381L149.694 42.308C149.582 42.9346 149.881 43.0806 150.327 43.0806H155.947C156.617 43.0806 156.766 42.7121 156.841 42.308L159.113 29.517C159.226 28.9087 159.288 28.292 159.299 27.6734C159.304 23.7266 156.698 21.2965 152.34 21.2965Z" fill="#202020"/>
<path d="M184.329 21.6279H178.185C177.775 21.6279 177.404 21.9231 177.253 22.3288L171.928 35.6729H171.63C171.407 35.6729 171.37 35.4882 171.332 35.0463L170.662 22.3658C170.624 21.9602 170.476 21.6279 170.066 21.6279H164.07C163.437 21.6279 163.139 21.9231 163.139 22.3288V22.4392L165.299 39.9852C165.523 41.8651 166.491 42.5289 168.241 42.5289H168.725L168.204 43.7451C167.757 44.8145 166.975 45.1459 165.932 45.1459C164.517 45.1459 162.283 44.925 160.905 44.8515H160.868C160.421 44.8515 159.974 45.2201 159.9 45.6242L159.267 49.1994V49.3099C159.267 49.6421 159.601 49.7526 159.974 49.8995C160.943 50.2688 163.4 50.5632 164.892 50.5632C170.738 50.5632 172.861 48.2776 174.685 44.3338L184.927 22.4377C184.969 22.3575 184.996 22.2699 185.005 22.1796C184.999 21.886 184.664 21.6279 184.329 21.6279Z" fill="#202020"/>
<path d="M45.2991 6.31568C39.247 -2.49284 22.1105 -4.13788 17.3535 14.8924C16.2185 19.4195 15.3153 28.3107 10.9299 30.9602C8.00884 32.7243 4.29474 30.8405 4.28381 26.9701C4.27522 23.0581 9.36398 21.0831 11.1531 23.5603C12.406 25.2942 14.6533 24.0695 13.8626 22.2197C11.7753 17.3356 6.27201 13.3973 1.00684 14.0618C-0.105525 14.2016 -0.589499 15.0663 1.0849 15.3189C4.88331 15.8961 7.31724 17.4932 8.969 19.6189C4.05119 19.5578 1.14187 23.3339 1.41118 27.4654C1.78275 33.1516 7.11973 35.5136 11.4763 33.789C17.9202 31.2392 18.7632 21.3025 20.1972 15.5855C25.2032 -4.37432 46.0547 4.11742 43.8589 15.6945H42.8933C42.4834 15.6945 42.0736 15.9888 41.9995 16.3945L41.1642 21.0893L40.2228 26.3775C42.7777 24.4072 44.8705 21.8681 46.1921 18.8825C46.6483 17.8597 46.9886 16.7899 47.2069 15.6929C47.8228 12.5659 47.3443 9.29127 45.2991 6.31568Z" fill="#202020"/>
<path d="M27.1994 34.7758C26.6894 34.9219 26.1876 35.0944 25.696 35.2928C23.3386 36.2447 21.1856 37.8009 19.7205 39.8562C19.4602 40.2206 19.2227 40.6004 19.0093 40.9936C18.7213 40.0698 18.4867 39.1305 18.3068 38.1803C18.2121 37.6413 18.0533 37.1153 17.8337 36.6133C18.069 36.3475 18.3128 36.0899 18.5652 35.8406C19.0001 35.4119 19.4585 35.0072 19.9382 34.6283C20.3953 34.2701 20.8703 33.9349 21.3613 33.6238C23.3893 33.6717 25.3728 34.0449 27.1994 34.7758Z" fill="#FFA31E"/>
<path d="M35.9632 48.1479C35.9588 49.4183 35.8202 50.6846 35.5495 51.9263C34.7976 52.2561 34.1235 52.7377 33.5706 53.3403C32.2966 53.1635 31.0422 52.8688 29.8237 52.4603C30.0007 52.167 30.1932 51.8833 30.4006 51.6103C31.7503 49.8332 33.4606 48.9059 34.9632 48.4184C35.2917 48.3117 35.6255 48.2215 35.9632 48.1479Z" fill="#FFA31E"/>
<path d="M35.6844 45.1106C35.3579 45.1793 35.0351 45.2644 34.7173 45.3656C31.9852 46.231 29.5278 48.2508 27.905 50.5866C27.7153 50.8601 27.5373 51.1383 27.371 51.4187C26.3295 50.8808 25.3509 50.2309 24.4531 49.4809C24.6243 49.1996 24.8044 48.9225 24.9933 48.6495C27.0619 45.6561 30.1562 43.172 33.651 42.0608C33.9742 41.9578 34.3005 41.8669 34.6299 41.7881C35.114 42.85 35.4681 43.9654 35.6844 45.1106Z" fill="#FFA31E"/>
<path d="M33.2184 39.3856C32.8495 39.4443 32.4852 39.5162 32.1256 39.6012C30.1911 40.0509 28.3732 40.897 26.7894 42.0849C25.2055 43.2729 23.8908 44.7763 22.9301 46.4981C22.7552 46.8102 22.5916 47.1304 22.4391 47.4585C21.5883 46.43 20.8592 45.3085 20.2659 44.1159C20.4699 43.7878 20.6835 43.4676 20.9067 43.1555C22.9517 40.2933 25.8185 38.1055 29.1351 36.8759C29.5223 36.7322 29.9154 36.6014 30.3146 36.4834C31.3541 37.2424 32.2773 38.1462 33.0553 39.1669C33.1084 39.2395 33.1646 39.313 33.2184 39.3856Z" fill="#FFA31E"/>
<path d="M40.2246 26.3769C36.643 29.1251 32.2979 30.7234 27.7724 30.9573C32.6121 32.5645 35.9687 35.7572 37.8593 39.67C38.3878 40.7636 38.8046 41.9066 39.1036 43.0822C40.2683 47.624 39.7788 52.7128 37.6852 57.2871C25.9645 57.0638 17.5324 51.9355 15.239 40.1483C14.5841 36.7771 16.7299 34.1485 17.5285 38.3217C19.3785 47.9879 25.6991 53.7884 35.6986 54.3347C39.5423 43.0698 32.6457 32.2886 19.9367 32.8473C17.7814 32.9423 16.8712 32.2291 17.8993 31.1111C19.6705 29.1794 23.4244 28.7235 25.8755 28.3294C32.0087 27.3427 37.3028 25.8978 41.166 21.0879L40.2246 26.3769Z" fill="#202020"/>
<path d="M47.2097 15.6909C46.9914 16.7879 46.6511 17.8577 46.1949 18.8805C44.8733 21.8646 42.7805 24.4036 40.2256 26.3755L41.167 21.0873C41.5136 20.6561 41.8482 20.1974 42.1708 19.7112C43.0685 18.3566 43.6134 17.0068 43.8616 15.6932C46.0575 4.11619 25.2052 -4.37554 20.2 15.5843C18.766 21.3021 17.923 31.2372 11.4791 33.7878C7.12252 35.5124 1.78553 33.1503 1.41396 27.4642C1.14465 23.3327 4.05397 19.5566 8.97178 19.6177C7.32314 17.492 4.88922 15.8949 1.08768 15.3177C-0.5875 15.0635 -0.103526 14.2004 1.00962 14.0606C6.27479 13.3961 11.7819 17.3344 13.8654 22.2185C14.6561 24.0683 12.4088 25.293 11.1559 23.5591C9.36051 21.0819 4.27488 23.0568 4.28659 26.9689C4.29518 30.8393 8.01162 32.723 10.9326 30.959C15.3181 28.3095 16.2212 19.4183 17.3562 14.8912C22.1125 -4.13833 39.2491 -2.49407 45.3019 6.31446C47.3447 9.29159 47.8232 12.5662 47.2097 15.6909Z" fill="#202020"/>
<path d="M50.3498 46.4355L50.0149 48.2745C49.9998 48.3565 49.9569 48.431 49.8934 48.4858C49.8298 48.5405 49.7494 48.5723 49.6652 48.5759H46.5888C46.0424 48.5759 45.8277 48.7567 45.7216 49.3292L45.5202 50.4148H49.2671C49.3015 50.4132 49.3359 50.4187 49.368 50.4309C49.4002 50.4432 49.4294 50.4619 49.4538 50.486C49.4782 50.5101 49.4972 50.539 49.5097 50.5707C49.5222 50.6025 49.5278 50.6365 49.5262 50.6706V50.7162L49.2062 52.4933C49.1909 52.5753 49.148 52.6497 49.0845 52.7045C49.021 52.7592 48.9406 52.791 48.8565 52.7947H45.1096L44.3641 56.9841C44.3452 57.0672 44.2992 57.1417 44.2332 57.1962C44.1671 57.2507 44.0847 57.2821 43.9988 57.2855H41.5165C41.4841 57.2868 41.4518 57.2814 41.4217 57.2698C41.3916 57.2581 41.3642 57.2404 41.3413 57.2178C41.3184 57.1951 41.3005 57.168 41.2888 57.1382C41.277 57.1084 41.2716 57.0764 41.2729 57.0444V56.9841L42.6281 49.3277C43.1612 46.2686 45.0947 45.9372 47.1352 45.9372C48.1233 45.9311 49.1106 45.9964 50.089 46.1326C50.2561 46.1481 50.3474 46.2385 50.3474 46.3737L50.3498 46.4355Z" fill="#FFA31E"/>
<path d="M58.4502 52.4641L58.294 53.3388C57.7913 56.2626 56.2231 57.4232 53.5737 57.4232C51.381 57.4232 50.2241 56.1568 50.2241 54.2552C50.221 53.947 50.2472 53.6391 50.3022 53.3357L50.4544 52.461C50.972 49.477 52.6464 48.3774 55.1896 48.3774C57.3058 48.3774 58.5235 49.6276 58.5235 51.557C58.5162 51.8605 58.4917 52.1634 58.4502 52.4641ZM54.7657 50.8067C53.989 50.8067 53.5776 51.2703 53.3645 52.4641L53.2123 53.3388C53.1682 53.5878 53.1421 53.8395 53.1342 54.0922C53.1342 54.8007 53.4387 55.0116 54.0171 55.0116C54.7782 55.0116 55.1591 54.6199 55.387 53.3388L55.5393 52.4641C55.5838 52.2103 55.6099 51.9536 55.6173 51.6961C55.6181 51.0324 55.3558 50.8067 54.7657 50.8067Z" fill="#FFA31E"/>
<path d="M63.0635 51.1079L62.0284 56.9555C61.9979 57.1216 61.937 57.287 61.6631 57.287H59.379C59.2112 57.287 59.059 57.1819 59.105 56.9555L60.5515 48.8169C60.5819 48.6515 60.6577 48.5156 60.9168 48.5156H63.0486C63.2157 48.5156 63.3226 48.5758 63.2922 48.8169L63.2461 49.1785C63.962 48.4707 64.7691 48.395 65.3015 48.395H65.4693C65.7277 48.395 65.7581 48.531 65.7277 48.6964L65.4084 50.4596C65.3779 50.6141 65.3304 50.761 65.0884 50.761H64.8792C64.2203 50.761 63.581 50.8514 63.0635 51.1079Z" fill="#FFA31E"/>
<path d="M76.2033 55.1021L75.8684 56.941C75.838 57.1219 75.7162 57.2122 75.518 57.2424C74.9395 57.3475 73.9193 57.4232 73.1122 57.4232C71.3948 57.4232 69.7017 56.8653 69.7017 54.8309C69.7069 54.5681 69.733 54.3061 69.7797 54.0474L71.1349 46.3909C71.1568 46.3067 71.2057 46.2318 71.2742 46.1775C71.3428 46.1232 71.4272 46.0923 71.515 46.0895H73.9973C74.0297 46.0882 74.062 46.0936 74.0921 46.1052C74.1222 46.1169 74.1496 46.1346 74.1725 46.1572C74.1954 46.1799 74.2133 46.207 74.225 46.2368C74.2368 46.2667 74.2422 46.2986 74.2409 46.3306V46.3909L72.8857 54.0474C72.8687 54.1418 72.8585 54.2374 72.8553 54.3333C72.8553 54.6802 73.038 54.7969 73.4798 54.7969H75.9465C75.9809 54.7952 76.0153 54.8007 76.0474 54.813C76.0796 54.8252 76.1088 54.844 76.1332 54.8681C76.1576 54.8921 76.1766 54.921 76.1891 54.9528C76.2016 54.9845 76.2072 55.0185 76.2057 55.0526L76.2033 55.1021Z" fill="#FFA31E"/>
<path d="M81.2434 48.5158C81.4112 48.5158 81.5635 48.5614 81.5174 48.8326L80.0708 56.9557C80.0403 57.1219 79.9646 57.2872 79.675 57.2872H77.4064C77.2385 57.2872 77.0863 57.227 77.1324 56.9557L78.5789 48.8326C78.6094 48.6665 78.7155 48.5158 78.9747 48.5158H81.2434ZM81.8375 45.6074C82.0046 45.6074 82.1568 45.6522 82.1115 45.9088L81.8523 47.3853C81.8219 47.5515 81.761 47.6867 81.4565 47.6867H79.0505C78.7616 47.6867 78.7312 47.5515 78.7616 47.3853L79.02 45.9088C79.0505 45.7426 79.1574 45.6074 79.4314 45.6074H81.8375Z" fill="#FFA31E"/>
<path d="M88.6579 45.547C88.9171 45.5918 88.9475 45.6676 88.9171 45.8329L88.6727 47.2237C88.6423 47.4045 88.5947 47.5251 88.3074 47.5251H87.6985C87.2872 47.5251 87.1521 47.5854 87.0436 48.1726L86.9827 48.5195H88.1099C88.3379 48.5195 88.4144 48.5968 88.3683 48.8363L88.0943 50.343C88.0641 50.5542 87.9424 50.6598 87.729 50.6598H86.6026L85.4317 57.2276C85.0055 59.6229 83.8939 60.0007 82.1274 60.0007C81.7072 59.9889 81.2891 59.9385 80.8784 59.8501C80.7262 59.8199 80.5888 59.7295 80.6193 59.5634L80.8628 58.1772C80.8932 57.9964 80.9697 57.8759 81.2133 57.8759H81.7308C82.2484 57.8759 82.3857 57.8303 82.4919 57.2276L83.6495 50.6598L82.6441 50.5053C82.4466 50.4898 82.3553 50.3392 82.3858 50.1437L82.6137 48.8301C82.6226 48.7385 82.6675 48.6539 82.7387 48.5947C82.81 48.5354 82.9018 48.5062 82.9946 48.5133H84.0297L84.0906 48.1664C84.502 45.8005 85.6284 45.394 87.4097 45.394C87.8297 45.4067 88.2475 45.4579 88.6579 45.547Z" fill="#FFA31E"/>
<path d="M96.4842 52.4796L96.332 53.3836C96.3188 53.4747 96.2732 53.5582 96.2033 53.619C96.1335 53.6797 96.044 53.7138 95.951 53.7151H91.2159C91.1881 53.8682 91.1729 54.0232 91.1706 54.1787C91.1706 54.9321 91.6577 55.0379 92.4196 55.0379C93.2268 55.0379 94.7614 54.9777 95.3429 54.9174H95.4039C95.5412 54.9174 95.6326 54.9777 95.6326 55.1129V55.1731L95.3882 56.53C95.343 56.771 95.2665 56.8769 95.0081 56.9518C93.9879 57.2686 92.9528 57.4155 91.6733 57.4155C89.9833 57.4155 88.3082 56.3754 88.3082 54.2351C88.3068 53.9763 88.3274 53.7178 88.3698 53.4624L88.5369 52.468C89.0396 49.4839 90.7749 48.3728 93.3181 48.3728C95.5256 48.3728 96.5607 49.8193 96.5607 51.6126C96.5581 51.9032 96.5325 52.193 96.4842 52.4796ZM92.8934 50.6252C92.0402 50.6252 91.6749 51.258 91.4883 52.1172H93.7419C93.7884 51.9194 93.8145 51.7175 93.82 51.5145C93.8192 50.9875 93.5757 50.6259 92.8911 50.6259L92.8934 50.6252Z" fill="#FFA31E"/>
</g>
<defs>
<clipPath id="clip0_1740_7094">
<rect width="185" height="60" fill="white"/>
</clipPath>
</defs>
</svg>
